<?xml version="1.0" encoding="UTF-8" standalone="no"?>
<svg
   xmlns:dc="http://purl.org/dc/elements/1.1/"
   xmlns:cc="http://creativecommons.org/ns#"
   xmlns:rdf="http://www.w3.org/1999/02/22-rdf-syntax-ns#"
   xmlns:svg="http://www.w3.org/2000/svg"
   xmlns="http://www.w3.org/2000/svg"
   viewBox="0 0 1766.4268 318.17599"
   height="318.17599"
   width="1766.4268"
   xml:space="preserve"
   id="svg2"
   version="1.1"><metadata
     id="metadata8"><rdf:RDF><cc:Work
         rdf:about=""><dc:format>image/svg+xml</dc:format><dc:type
           rdf:resource="http://purl.org/dc/dcmitype/StillImage" /></cc:Work></rdf:RDF></metadata><defs
     id="defs6"><clipPath
       id="clipPath14"
       clipPathUnits="userSpaceOnUse"><path
         id="path12"
         d="M 0,0 H 1920 V 1080 H 0 Z" /></clipPath><clipPath
       id="clipPath24"
       clipPathUnits="userSpaceOnUse"><path
         id="path22"
         d="M 0,0 H 1920 V 1080 H 0 Z" /></clipPath></defs><g
     clip-path="url(#clipPath14)"
     transform="matrix(1.3333333,0,0,-1.3333333,-416.92,1158.396)"
     id="g10"><g
       id="g16" /><g
       id="g18"><g
         clip-path="url(#clipPath24)"
         id="g20"><path
           id="path26"
           style="fill:#ffffff;fill-opacity:1;fill-rule:nonzero;stroke:none"
           d="M 0,1080 H 1920 V 0 H 0 Z" /><path
           id="path28"
           style="fill:#f9f7f7;fill-opacity:1;fill-rule:nonzero;stroke:none"
           d="m 246.9575,514.1583 h 1459.451 V 990.8791 H 246.9575 Z" /><g
           transform="matrix(1,0,0,-1,357.6812,752.5187)"
           id="g30"><path
             id="path32"
             style="fill:none;stroke:#5e5e5e;stroke-width:10;stroke-linecap:butt;stroke-linejoin:miter;stroke-miterlimit:4;stroke-dasharray:none;stroke-opacity:1"
             d="M 0,0 H 394.3154" /></g><g
           transform="matrix(1,0,0,-1,738.8228,752.5187)"
           id="g34"><path
             id="path36"
             style="fill:none;stroke:#890100;stroke-width:10;stroke-linecap:butt;stroke-linejoin:miter;stroke-miterlimit:4;stroke-dasharray:none;stroke-opacity:1"
             d="M 0,0 H 648.6222" /></g><g
           transform="matrix(1,0,0,-1,1367.04,752.5187)"
           id="g38"><path
             id="path40"
             style="fill:none;stroke:#5e5e5e;stroke-width:10;stroke-linecap:butt;stroke-linejoin:miter;stroke-miterlimit:4;stroke-dasharray:none;stroke-opacity:1"
             d="M 0,0 H 207.275" /></g><path
           id="path42"
           style="fill:#5e5e5e;fill-opacity:1;fill-rule:nonzero;stroke:none"
           d="m 369.6227,768.5021 c 8.8273,-8.8274 8.8273,-23.1394 0,-31.9667 -8.8274,-8.8274 -23.1394,-8.8274 -31.9668,0 -8.8273,8.8273 -8.8273,23.1393 0,31.9667 8.8274,8.8274 23.1394,8.8274 31.9668,0 z" /><path
           id="path44"
           style="fill:#890100;fill-opacity:1;fill-rule:nonzero;stroke:none"
           d="m 763.2739,768.5021 c 8.8274,-8.8274 8.8274,-23.1394 0,-31.9667 -8.8273,-8.8274 -23.1393,-8.8274 -31.9667,0 -8.8274,8.8273 -8.8274,23.1393 0,31.9667 8.8274,8.8274 23.1394,8.8274 31.9667,0 z" /><path
           id="path46"
           style="fill:#890100;fill-opacity:1;fill-rule:nonzero;stroke:none"
           d="m 884.8816,768.5021 c 8.8273,-8.8274 8.8273,-23.1394 0,-31.9667 -8.8274,-8.8274 -23.1394,-8.8274 -31.9667,0 -8.8274,8.8273 -8.8274,23.1393 0,31.9667 8.8273,8.8274 23.1393,8.8274 31.9667,0 z" /><path
           id="path48"
           style="fill:#890100;fill-opacity:1;fill-rule:nonzero;stroke:none"
           d="m 1121.585,768.5021 c 8.827,-8.8274 8.827,-23.1394 0,-31.9667 -8.828,-8.8274 -23.14,-8.8274 -31.967,0 -8.828,8.8273 -8.828,23.1393 0,31.9667 8.827,8.8274 23.139,8.8274 31.967,0 z" /><path
           id="path50"
           style="fill:#890100;fill-opacity:1;fill-rule:nonzero;stroke:none"
           d="m 1400.14,768.5021 c 8.828,-8.8274 8.828,-23.1394 0,-31.9667 -8.827,-8.8274 -23.139,-8.8274 -31.966,0 -8.828,8.8273 -8.828,23.1393 0,31.9667 8.827,8.8274 23.139,8.8274 31.966,0 z" /><path
           id="path52"
           style="fill:#5e5e5e;fill-opacity:1;fill-rule:nonzero;stroke:none"
           d="m 1574.064,768.5021 c 8.828,-8.8274 8.828,-23.1394 0,-31.9667 -8.827,-8.8274 -23.139,-8.8274 -31.967,0 -8.827,8.8273 -8.827,23.1393 0,31.9667 8.828,8.8274 23.14,8.8274 31.967,0 z" /><g
           transform="translate(643.5794,655.2996)"
           id="g54"><text
             id="text58"
             style="font-variant:normal;font-weight:normal;font-size:35px;font-family:Avenir;-inkscape-font-specification:Avenir-Book;writing-mode:lr-tb;fill:#890100;fill-opacity:1;fill-rule:nonzero;stroke:none"
             transform="scale(1,-1)"><tspan
               id="tspan56"
               y="0"
               x="0 29.469999 37.52 56.630001 77.665001 87.675003 106.785 114.835 133.94501 153.05499 167.61501 182.175 191.55499 212.59 223.86 241.675 258.19501 269.465 277.51501 294.035">mindfulness practice</tspan></text>
</g><g
           transform="translate(430.3439,827.3577)"
           id="g60"><text
             id="text64"
             style="font-variant:normal;font-weight:normal;font-size:35px;font-family:Avenir;-inkscape-font-specification:Avenir-Book;writing-mode:lr-tb;fill:#5e5e5e;fill-opacity:1;fill-rule:nonzero;stroke:none"
             transform="scale(1,-1)"><tspan
               id="tspan62"
               y="0"
               x="0 21.035 31.674999 50.785 62.09 78.610001 86.660004 104.475 119.035 133.595 142.97501 160.78999 177.31 188.58 196.63 213.14999 221.2 232.47">pre-class activity</tspan></text>
</g><g
           transform="translate(877.5453,827.3577)"
           id="g66"><text
             id="text70"
             style="font-variant:normal;font-weight:normal;font-size:35px;font-family:Avenir;-inkscape-font-specification:Avenir-Book;writing-mode:lr-tb;fill:#890100;fill-opacity:1;fill-rule:nonzero;stroke:none"
             transform="scale(1,-1)"><tspan
               id="tspan68"
               y="0"
               x="0 21.035 40.145 59.255001 73.815002 85.084999 94.464996 102.515 121.625 138.145 149.41499 168.52499 179.16499">guest lecture</tspan></text>
</g><g
           transform="translate(1043.737,655.2996)"
           id="g72"><text
             id="text76"
             style="font-variant:normal;font-weight:normal;font-size:35px;font-family:Avenir;-inkscape-font-specification:Avenir-Book;writing-mode:lr-tb;fill:#890100;fill-opacity:1;fill-rule:nonzero;stroke:none"
             transform="scale(1,-1)"><tspan
               id="tspan74"
               y="0"
               x="0 14.56 31.08 50.189999 61.459999 80.57 99.68 114.24 122.29 136.85001 146.23 167.265 177.905 198.31 217.42 238.455 247.83501 268.87 276.92001 291.48001 308 327.10999 341.67001 356.23001 364.28 384.685 403.79501">synthesis group discussion </tspan></text>
</g><g
           transform="translate(1319.81,827.3577)"
           id="g78"><text
             id="text82"
             style="font-variant:normal;font-weight:normal;font-size:35px;font-family:Avenir;-inkscape-font-specification:Avenir-Book;writing-mode:lr-tb;fill:#5e5e5e;fill-opacity:1;fill-rule:nonzero;stroke:none"
             transform="scale(1,-1)"><tspan
               id="tspan80"
               y="0"
               x="0 21.035 41.439999 56 67.269997 78.574997 95.095001 103.145 120.96 135.52 150.08 159.46001 170.10001 189.21001 199.22 207.27 226.38 242.89999 254.17 262.22 282.625 301.73499">post-class reflection </tspan></text>
</g><g
           transform="matrix(0,1,1,0,554.8389,767.4294)"
           id="g84"><path
             id="path86"
             style="fill:none;stroke:#000000;stroke-width:2;stroke-linecap:butt;stroke-linejoin:miter;stroke-miterlimit:4;stroke-dasharray:2, 2;stroke-dashoffset:0;stroke-opacity:1"
             d="M 0,0 H 45.20777" /></g><g
           transform="matrix(0,1,1,0,808.0944,692.689)"
           id="g88"><path
             id="path90"
             style="fill:none;stroke:#890100;stroke-width:2;stroke-linecap:butt;stroke-linejoin:miter;stroke-miterlimit:4;stroke-dasharray:2, 2;stroke-dashoffset:0;stroke-opacity:1"
             d="M 0,0 H 45.20777" /></g><g
           transform="matrix(0,1,1,0,976.6828,767.4294)"
           id="g92"><path
             id="path94"
             style="fill:none;stroke:#890100;stroke-width:2;stroke-linecap:butt;stroke-linejoin:miter;stroke-miterlimit:4;stroke-dasharray:2, 2;stroke-dashoffset:0;stroke-opacity:1"
             d="M 0,0 H 45.20777" /></g><g
           transform="matrix(0,1,1,0,1245.634,692.689)"
           id="g96"><path
             id="path98"
             style="fill:none;stroke:#890100;stroke-width:2;stroke-linecap:butt;stroke-linejoin:miter;stroke-miterlimit:4;stroke-dasharray:2, 2;stroke-dashoffset:0;stroke-opacity:1"
             d="M 0,0 H 45.20777" /></g><g
           transform="matrix(0,1,1,0,1470.677,767.4294)"
           id="g100"><path
             id="path102"
             style="fill:none;stroke:#000000;stroke-width:2;stroke-linecap:butt;stroke-linejoin:miter;stroke-miterlimit:4;stroke-dasharray:2, 2;stroke-dashoffset:0;stroke-opacity:1"
             d="M 0,0 H 45.20777" /></g></g></g></g></svg>