<?xml version="1.0" encoding="UTF-8" standalone="no"?>
<svg
   xmlns:dc="http://purl.org/dc/elements/1.1/"
   xmlns:cc="http://creativecommons.org/ns#"
   xmlns:rdf="http://www.w3.org/1999/02/22-rdf-syntax-ns#"
   xmlns:svg="http://www.w3.org/2000/svg"
   xmlns="http://www.w3.org/2000/svg"
   viewBox="0 0 266.66666 266.66666"
   height="266.66666"
   width="266.66666"
   xml:space="preserve"
   id="svg2"
   version="1.1"><metadata
     id="metadata8"><rdf:RDF><cc:Work
         rdf:about=""><dc:format>image/svg+xml</dc:format><dc:type
           rdf:resource="http://purl.org/dc/dcmitype/StillImage" /></cc:Work></rdf:RDF></metadata><defs
     id="defs6"><clipPath
       id="clipPath20"
       clipPathUnits="userSpaceOnUse"><path
         id="path18"
         d="M 0,0 H 200 V 200 H 0 Z" /></clipPath><clipPath
       id="clipPath42"
       clipPathUnits="userSpaceOnUse"><path
         id="path40"
         d="m 66.0367,66.03671 h 67.92659 v 67.92658 H 66.0367 Z" /></clipPath><clipPath
       id="clipPath62"
       clipPathUnits="userSpaceOnUse"><path
         id="path60"
         d="M 0,0 H 200 V 200 H 0 Z" /></clipPath><clipPath
       id="clipPath82"
       clipPathUnits="userSpaceOnUse"><path
         id="path80"
         d="m 128.5446,82.5634 11.7031,-6.75675 -2,-3.4641 -11.7031,6.75675 z" /></clipPath><clipPath
       id="clipPath88"
       clipPathUnits="userSpaceOnUse"><path
         id="path86"
         d="M 0,0 H 200 V 200 H 0 Z" /></clipPath><clipPath
       id="clipPath100"
       clipPathUnits="userSpaceOnUse"><path
         id="path98"
         d="m 141.0597,84.12832 24.2651,-14.00942 -5.515,-9.55212 -24.265,14.00942 z" /></clipPath><clipPath
       id="clipPath106"
       clipPathUnits="userSpaceOnUse"><path
         id="path104"
         d="M 0,0 H 200 V 200 H 0 Z" /></clipPath><clipPath
       id="clipPath118"
       clipPathUnits="userSpaceOnUse"><path
         id="path116"
         d="m 158.1722,65.60226 24.265,-14.00942 -2,-3.4641 -24.265,14.00942 z" /></clipPath><clipPath
       id="clipPath124"
       clipPathUnits="userSpaceOnUse"><path
         id="path122"
         d="M 0,0 H 200 V 200 H 0 Z" /></clipPath><clipPath
       id="clipPath136"
       clipPathUnits="userSpaceOnUse"><path
         id="path134"
         d="m 58.22463,78.41358 12.03743,6.94982 2.2744,-3.93938 -12.03743,-6.94981 z" /></clipPath><clipPath
       id="clipPath142"
       clipPathUnits="userSpaceOnUse"><path
         id="path140"
         d="M 0,0 H 200 V 200 H 0 Z" /></clipPath><clipPath
       id="clipPath154"
       clipPathUnits="userSpaceOnUse"><path
         id="path152"
         d="M 38.91458,60.95216 H 63.06671 V 78.40574 H 38.91458 Z" /></clipPath><clipPath
       id="clipPath166"
       clipPathUnits="userSpaceOnUse"><path
         id="path164"
         d="M 15.27286,56.35388 40.19185,70.74087 42.81332,66.20035 17.89433,51.81336 Z" /></clipPath><clipPath
       id="clipPath172"
       clipPathUnits="userSpaceOnUse"><path
         id="path170"
         d="M 0,0 H 200 V 200 H 0 Z" /></clipPath><clipPath
       id="clipPath184"
       clipPathUnits="userSpaceOnUse"><path
         id="path182"
         d="M 0,0 H 200 V 200 H 0 Z" /></clipPath></defs><g
     transform="matrix(1.3333333,0,0,-1.3333333,0,266.66667)"
     id="g10"><g
       id="g12" /><g
       id="g14"><g
         clip-path="url(#clipPath20)"
         id="g16"><path
           id="path22"
           style="fill:#f9f7f7;fill-opacity:1;fill-rule:nonzero;stroke:none"
           d="M 0,200 H 200 V 0 H 0 Z" /><path
           id="path24"
           style="fill:#ffffff;fill-opacity:1;fill-rule:nonzero;stroke:none"
           d="m 166.9772,166.9772 c 36.9904,-36.9905 36.9904,-96.96389 0,-133.95435 -36.9905,-36.990459 -96.96389,-36.990459 -133.95435,0 -36.990459,36.99046 -36.990459,96.96385 0,133.95435 36.99046,36.9904 96.96385,36.9904 133.95435,0 z" /><g
           transform="matrix(1,0,0,-1,5.280006,194.72)"
           id="g26"><path
             id="path28"
             style="fill:none;stroke:#8a0000;stroke-width:2;stroke-linecap:butt;stroke-linejoin:miter;stroke-miterlimit:4;stroke-dasharray:none;stroke-opacity:1"
             d="m 161.6971,27.74284 c 36.9905,36.99046 36.9905,96.96386 0,133.95426 -36.9904,36.9905 -96.9638,36.9905 -133.95426,0 -36.990455,-36.9904 -36.990455,-96.9638 0,-133.95426 36.99046,-36.990455 96.96386,-36.990455 133.95426,0 z" /></g><path
           id="path30"
           style="fill:#000000;fill-opacity:1;fill-rule:nonzero;stroke:none"
           d="m 124.0157,124.0157 c 13.2635,-13.2635 13.2635,-34.76788 0,-48.03137 -13.2635,-13.26349 -34.76788,-13.26349 -48.03138,0 -13.26349,13.26349 -13.26349,34.76787 0,48.03137 13.2635,13.2635 34.76788,13.2635 48.03138,0 z" /><g
           transform="matrix(1,0,0,-1,66.0367,133.9633)"
           id="g32"><path
             id="path34"
             style="fill:none;stroke:#8a0000;stroke-width:2;stroke-linecap:butt;stroke-linejoin:miter;stroke-miterlimit:4;stroke-dasharray:none;stroke-opacity:1"
             d="m 57.97897,9.947617 c 13.26349,13.263493 13.26349,34.767853 0,48.031343 -13.26349,13.26349 -34.76786,13.26349 -48.031351,0 -13.263492,-13.26349 -13.263492,-34.76785 0,-48.031343 13.263491,-13.263489 34.767861,-13.263489 48.031351,0 z" /></g></g></g><g
       id="g36"><g
         clip-path="url(#clipPath42)"
         id="g38"><g
           transform="translate(87.11985,104.5866)"
           id="g44"><text
             id="text48"
             style="font-variant:normal;font-weight:bold;font-size:12px;font-family:Nunito;-inkscape-font-specification:Nunito-Bold;writing-mode:lr-tb;fill:#ffffff;fill-opacity:1;fill-rule:nonzero;stroke:none"
             transform="scale(1,-1)"><tspan
               id="tspan46"
               y="0"
               x="0 7.7399998 14.652 19.26 25.764">Core </tspan></text>
</g><g
           transform="translate(75.89917,88.58662)"
           id="g50"><text
             id="text54"
             style="font-variant:normal;font-weight:bold;font-size:12px;font-family:Nunito;-inkscape-font-specification:Nunito-Bold;writing-mode:lr-tb;fill:#ffffff;fill-opacity:1;fill-rule:nonzero;stroke:none"
             transform="scale(1,-1)"><tspan
               id="tspan52"
               y="0"
               x="0 7.1999998 14.148 20.652 26.448 31.212 34.271999 41.183998">question</tspan></text>
</g></g></g><g
       id="g56"><g
         clip-path="url(#clipPath62)"
         id="g58"><g
           transform="matrix(1,0,0,-1,89.48951,167.0449)"
           id="g64"><path
             id="path66"
             style="fill:none;stroke:#8a0000;stroke-width:2;stroke-linecap:butt;stroke-linejoin:miter;stroke-miterlimit:4;stroke-dasharray:none;stroke-opacity:1"
             d="M 9.95253,25.3264 C -3.241331,16.38736 -3.317073,7.945229 9.725304,0" /></g><g
           transform="matrix(0,1,1,0,99,166.1902)"
           id="g68"><path
             id="path70"
             style="fill:none;stroke:#8a0000;stroke-width:2;stroke-linecap:butt;stroke-linejoin:miter;stroke-miterlimit:4;stroke-dasharray:none;stroke-opacity:1"
             d="M 0,0 H 29.0412" /></g><g
           transform="matrix(0,1,1,0,99,133.6042)"
           id="g72"><path
             id="path74"
             style="fill:none;stroke:#8a0000;stroke-width:2;stroke-linecap:butt;stroke-linejoin:miter;stroke-miterlimit:4;stroke-dasharray:none;stroke-opacity:1"
             d="M 0,0 H 9.029838" /></g></g></g><g
       id="g76"><g
         clip-path="url(#clipPath82)"
         id="g78"><g
           clip-path="url(#clipPath88)"
           id="g84"><g
             transform="matrix(0.8660254,-0.5,-0.5,-0.8660254,128.4106,80.33135)"
             id="g90"><path
               id="path92"
               style="fill:none;stroke:#8a0000;stroke-width:2;stroke-linecap:butt;stroke-linejoin:miter;stroke-miterlimit:4;stroke-dasharray:none;stroke-opacity:1"
               d="M 0,0 H 11.51351" /></g></g></g></g><g
       id="g94"><g
         clip-path="url(#clipPath100)"
         id="g96"><g
           clip-path="url(#clipPath106)"
           id="g102"><g
             transform="matrix(0.8660254,-0.5,-0.5,-0.8660254,141.6056,81.50375)"
             id="g108"><path
               id="path110"
               style="fill:none;stroke:#8a0000;stroke-width:2;stroke-linecap:butt;stroke-linejoin:miter;stroke-miterlimit:4;stroke-dasharray:none;stroke-opacity:1"
               d="M 24.47842,7.370292 C 15.944,-2.470106 7.784522,-2.456746 0,7.410374" /></g></g></g></g><g
       id="g112"><g
         clip-path="url(#clipPath118)"
         id="g114"><g
           clip-path="url(#clipPath124)"
           id="g120"><g
             transform="matrix(0.8660254,-0.5,-0.5,-0.8660254,158.0382,63.37021)"
             id="g126"><path
               id="path128"
               style="fill:none;stroke:#8a0000;stroke-width:2;stroke-linecap:butt;stroke-linejoin:miter;stroke-miterlimit:4;stroke-dasharray:none;stroke-opacity:1"
               d="M 0,0 H 26.01884" /></g></g></g></g><g
       id="g130"><g
         clip-path="url(#clipPath136)"
         id="g132"><g
           clip-path="url(#clipPath142)"
           id="g138"><g
             transform="matrix(0.8660254,0.5,0.5,-0.8660254,60.13048,77.20578)"
             id="g144"><path
               id="path146"
               style="fill:none;stroke:#8a0000;stroke-width:2;stroke-linecap:butt;stroke-linejoin:miter;stroke-miterlimit:4;stroke-dasharray:none;stroke-opacity:1"
               d="M 0,0 11.8064,0.5509708" /></g></g></g></g><g
       id="g148"><g
         clip-path="url(#clipPath154)"
         id="g150"><g
           transform="matrix(1,0,0,-1,40.40183,77.37163)"
           id="g156"><path
             id="path158"
             style="fill:none;stroke:#8a0000;stroke-width:2;stroke-linecap:butt;stroke-linejoin:miter;stroke-miterlimit:4;stroke-dasharray:none;stroke-opacity:1"
             d="M 20.66545,0 C 20.1713,14.52056 13.28281,18.07435 0,10.66138" /></g></g></g><g
       id="g160"><g
         clip-path="url(#clipPath166)"
         id="g162"><g
           clip-path="url(#clipPath172)"
           id="g168"><g
             transform="matrix(0.8660254,0.5,0.5,-0.8660254,17.17871,55.14608)"
             id="g174"><path
               id="path176"
               style="fill:none;stroke:#8a0000;stroke-width:2;stroke-linecap:butt;stroke-linejoin:miter;stroke-miterlimit:4;stroke-dasharray:none;stroke-opacity:1"
               d="M 0,0 26.68074,1.245114" /></g></g></g></g><g
       id="g178"><g
         clip-path="url(#clipPath184)"
         id="g180"><g
           transform="translate(22.60366,128.2137)"
           id="g186"><text
             id="text190"
             style="font-variant:normal;font-weight:bold;font-size:14px;font-family:Nunito;-inkscape-font-specification:Nunito-Bold;writing-mode:lr-tb;fill:#000000;fill-opacity:1;fill-rule:nonzero;stroke:none"
             transform="scale(1,-1)"><tspan
               id="tspan188"
               y="0"
               x="0 7.7979999 15.386 23.576 30.408001 34.202">Lens 1</tspan></text>
</g><g
           transform="translate(135.0619,128.2137)"
           id="g192"><text
             id="text196"
             style="font-variant:normal;font-weight:bold;font-size:14px;font-family:Nunito;-inkscape-font-specification:Nunito-Bold;writing-mode:lr-tb;fill:#000000;fill-opacity:1;fill-rule:nonzero;stroke:none"
             transform="scale(1,-1)"><tspan
               id="tspan194"
               y="0"
               x="0 7.7979999 15.386 23.576 30.408001 34.202">Lens 2</tspan></text>
</g><g
           transform="translate(78.699,36.43977)"
           id="g198"><text
             id="text202"
             style="font-variant:normal;font-weight:bold;font-size:14px;font-family:Nunito;-inkscape-font-specification:Nunito-Bold;writing-mode:lr-tb;fill:#000000;fill-opacity:1;fill-rule:nonzero;stroke:none"
             transform="scale(1,-1)"><tspan
               id="tspan200"
               y="0"
               x="0 7.7979999 15.386 23.576 30.408001 34.202">Lens 3</tspan></text>
</g></g></g></g></svg>