<?xml version="1.0" encoding="UTF-8" standalone="no"?>
<svg
   xmlns:dc="http://purl.org/dc/elements/1.1/"
   xmlns:cc="http://creativecommons.org/ns#"
   xmlns:rdf="http://www.w3.org/1999/02/22-rdf-syntax-ns#"
   xmlns:svg="http://www.w3.org/2000/svg"
   xmlns="http://www.w3.org/2000/svg"
   viewBox="0 0 1666.6667 600"
   height="600"
   width="1666.6667"
   xml:space="preserve"
   id="svg2"
   version="1.1"><metadata
     id="metadata8"><rdf:RDF><cc:Work
         rdf:about=""><dc:format>image/svg+xml</dc:format><dc:type
           rdf:resource="http://purl.org/dc/dcmitype/StillImage" /></cc:Work></rdf:RDF></metadata><defs
     id="defs6"><clipPath
       id="clipPath20"
       clipPathUnits="userSpaceOnUse"><path
         id="path18"
         d="M 0,0 H 1250 V 450 H 0 Z" /></clipPath><clipPath
       id="clipPath30"
       clipPathUnits="userSpaceOnUse"><path
         id="path28"
         d="M 0,0 H 1250 V 450 H 0 Z" /></clipPath><clipPath
       id="clipPath36"
       clipPathUnits="userSpaceOnUse"><path
         id="path34"
         d="M 163,60 H 1256 V 165 H 163 Z" /></clipPath><clipPath
       id="clipPath40"
       clipPathUnits="userSpaceOnUse"><path
         id="path38"
         d="M 217,0 H 1250 V 155 H 217 Z" /></clipPath><clipPath
       id="clipPath64"
       clipPathUnits="userSpaceOnUse"><path
         id="path62"
         d="M 0,0 H 1250 V 450 H 0 Z" /></clipPath><clipPath
       id="clipPath70"
       clipPathUnits="userSpaceOnUse"><path
         id="path68"
         d="M 163,146 H 1256 V 251 H 163 Z" /></clipPath><clipPath
       id="clipPath74"
       clipPathUnits="userSpaceOnUse"><path
         id="path72"
         d="M 217,0 H 1250 V 240 H 217 Z" /></clipPath><clipPath
       id="clipPath98"
       clipPathUnits="userSpaceOnUse"><path
         id="path96"
         d="M 0,0 H 1250 V 450 H 0 Z" /></clipPath><clipPath
       id="clipPath104"
       clipPathUnits="userSpaceOnUse"><path
         id="path102"
         d="M 163,232 H 1256 V 336 H 163 Z" /></clipPath><clipPath
       id="clipPath108"
       clipPathUnits="userSpaceOnUse"><path
         id="path106"
         d="M 217,115 H 1250 V 326 H 217 Z" /></clipPath><clipPath
       id="clipPath132"
       clipPathUnits="userSpaceOnUse"><path
         id="path130"
         d="M 0,0 H 1250 V 450 H 0 Z" /></clipPath><clipPath
       id="clipPath138"
       clipPathUnits="userSpaceOnUse"><path
         id="path136"
         d="M 288,2 H 398 V 395 H 288 Z" /></clipPath><clipPath
       id="clipPath142"
       clipPathUnits="userSpaceOnUse"><path
         id="path140"
         d="M 292,0 H 690 V 378 H 292 Z" /></clipPath><clipPath
       id="clipPath162"
       clipPathUnits="userSpaceOnUse"><path
         id="path160"
         d="M 0,0 H 1250 V 450 H 0 Z" /></clipPath><clipPath
       id="clipPath168"
       clipPathUnits="userSpaceOnUse"><path
         id="path166"
         d="M 392,2 H 503 V 395 H 392 Z" /></clipPath><clipPath
       id="clipPath172"
       clipPathUnits="userSpaceOnUse"><path
         id="path170"
         d="M 396,0 H 899 V 378 H 396 Z" /></clipPath><clipPath
       id="clipPath192"
       clipPathUnits="userSpaceOnUse"><path
         id="path190"
         d="M 0,0 H 1250 V 450 H 0 Z" /></clipPath><clipPath
       id="clipPath198"
       clipPathUnits="userSpaceOnUse"><path
         id="path196"
         d="M 497,2 H 608 V 395 H 497 Z" /></clipPath><clipPath
       id="clipPath202"
       clipPathUnits="userSpaceOnUse"><path
         id="path200"
         d="m 501,0 h 607 V 378 H 501 Z" /></clipPath><clipPath
       id="clipPath222"
       clipPathUnits="userSpaceOnUse"><path
         id="path220"
         d="M 0,0 H 1250 V 450 H 0 Z" /></clipPath><clipPath
       id="clipPath228"
       clipPathUnits="userSpaceOnUse"><path
         id="path226"
         d="M 602,2 H 712 V 395 H 602 Z" /></clipPath><clipPath
       id="clipPath232"
       clipPathUnits="userSpaceOnUse"><path
         id="path230"
         d="m 606,0 h 644 V 378 H 606 Z" /></clipPath><clipPath
       id="clipPath252"
       clipPathUnits="userSpaceOnUse"><path
         id="path250"
         d="M 0,0 H 1250 V 450 H 0 Z" /></clipPath><clipPath
       id="clipPath258"
       clipPathUnits="userSpaceOnUse"><path
         id="path256"
         d="M 706,2 H 817 V 395 H 706 Z" /></clipPath><clipPath
       id="clipPath262"
       clipPathUnits="userSpaceOnUse"><path
         id="path260"
         d="m 710,0 h 540 V 378 H 710 Z" /></clipPath><clipPath
       id="clipPath282"
       clipPathUnits="userSpaceOnUse"><path
         id="path280"
         d="M 0,0 H 1250 V 450 H 0 Z" /></clipPath><clipPath
       id="clipPath288"
       clipPathUnits="userSpaceOnUse"><path
         id="path286"
         d="M 811,2 H 922 V 395 H 811 Z" /></clipPath><clipPath
       id="clipPath292"
       clipPathUnits="userSpaceOnUse"><path
         id="path290"
         d="m 815,0 h 435 V 378 H 815 Z" /></clipPath><clipPath
       id="clipPath312"
       clipPathUnits="userSpaceOnUse"><path
         id="path310"
         d="M 0,0 H 1250 V 450 H 0 Z" /></clipPath><clipPath
       id="clipPath318"
       clipPathUnits="userSpaceOnUse"><path
         id="path316"
         d="m 916,2 h 110 V 395 H 916 Z" /></clipPath><clipPath
       id="clipPath322"
       clipPathUnits="userSpaceOnUse"><path
         id="path320"
         d="m 920,0 h 330 V 378 H 920 Z" /></clipPath><clipPath
       id="clipPath342"
       clipPathUnits="userSpaceOnUse"><path
         id="path340"
         d="M 0,0 H 1250 V 450 H 0 Z" /></clipPath><clipPath
       id="clipPath348"
       clipPathUnits="userSpaceOnUse"><path
         id="path346"
         d="m 1020,2 h 111 v 393 h -111 z" /></clipPath><clipPath
       id="clipPath352"
       clipPathUnits="userSpaceOnUse"><path
         id="path350"
         d="m 1024,0 h 226 v 378 h -226 z" /></clipPath></defs><g
     transform="matrix(1.3333333,0,0,-1.3333333,0,600)"
     id="g10"><g
       id="g12" /><g
       id="g14"><g
         clip-path="url(#clipPath20)"
         id="g16"><path
           id="path22"
           style="fill:#f9f7f7;fill-opacity:1;fill-rule:nonzero;stroke:none"
           d="M 0,450 H 1250 V 0 H 0 Z" /></g></g><g
       id="g24"><g
         clip-path="url(#clipPath30)"
         id="g26"><g
           id="g32" /><g
           id="g56"><g
             style="opacity:0.45"
             id="g54"
             clip-path="url(#clipPath36)"><g
               id="g42" /><g
               id="g52"><g
                 id="g50"
                 clip-path="url(#clipPath40)"><path
                   id="path44"
                   style="fill:#1f77b4;fill-opacity:1;fill-rule:nonzero;stroke:none"
                   d="m 1054.763,139.6748 c 190.741,-14.8788 190.741,-39.0021 0,-53.88084 -190.7413,-14.87878 -499.9939,-14.87878 -690.7351,0 -190.7412,14.87874 -190.7412,39.00204 0,53.88084 190.7412,14.8788 499.9938,14.8788 690.7351,0 z" /><g
                   id="g48"
                   transform="matrix(1,0,0,-1,220.972,150.8339)"><path
                     id="path46"
                     style="fill:none;stroke:#1f77b4;stroke-width:5;stroke-linecap:butt;stroke-linejoin:miter;stroke-miterlimit:4;stroke-dasharray:none;stroke-opacity:1"
                     d="m 833.791,11.15908 c 190.741,14.87878 190.741,39.00205 0,53.88082 -190.7413,14.87878 -499.9939,14.87878 -690.7351,0 -190.7412,-14.87877 -190.7412,-39.00204 0,-53.88082 190.7412,-14.878774 499.9938,-14.878774 690.7351,0 z" /></g></g></g></g></g></g></g><g
       id="g58"><g
         clip-path="url(#clipPath64)"
         id="g60"><g
           id="g66" /><g
           id="g90"><g
             style="opacity:0.45"
             id="g88"
             clip-path="url(#clipPath70)"><g
               id="g76" /><g
               id="g86"><g
                 id="g84"
                 clip-path="url(#clipPath74)"><path
                   id="path78"
                   style="fill:#1f77b4;fill-opacity:1;fill-rule:nonzero;stroke:none"
                   d="m 1054.763,225.2002 c 190.741,-14.8788 190.741,-39.002 0,-53.8808 -190.7413,-14.8788 -499.9939,-14.8788 -690.7351,0 -190.7412,14.8788 -190.7412,39.002 0,53.8808 190.7412,14.8788 499.9938,14.8788 690.7351,0 z" /><g
                   id="g82"
                   transform="matrix(1,0,0,-1,220.972,236.3593)"><path
                     id="path80"
                     style="fill:none;stroke:#1f77b4;stroke-width:5;stroke-linecap:butt;stroke-linejoin:miter;stroke-miterlimit:4;stroke-dasharray:none;stroke-opacity:1"
                     d="m 833.791,11.15908 c 190.741,14.87878 190.741,39.00204 0,53.88081 -190.7413,14.87879 -499.9939,14.87879 -690.7351,0 -190.7412,-14.87877 -190.7412,-39.00203 0,-53.88081 190.7412,-14.878774 499.9938,-14.878774 690.7351,0 z" /></g></g></g></g></g></g></g><g
       id="g92"><g
         clip-path="url(#clipPath98)"
         id="g94"><g
           id="g100" /><g
           id="g124"><g
             style="opacity:0.45"
             id="g122"
             clip-path="url(#clipPath104)"><g
               id="g110" /><g
               id="g120"><g
                 id="g118"
                 clip-path="url(#clipPath108)"><path
                   id="path112"
                   style="fill:#1f77b4;fill-opacity:1;fill-rule:nonzero;stroke:none"
                   d="m 1054.763,310.8928 c 190.741,-14.8788 190.741,-39.002 0,-53.8808 -190.7413,-14.8788 -499.9939,-14.8788 -690.7351,0 -190.7412,14.8788 -190.7412,39.002 0,53.8808 190.7412,14.8788 499.9938,14.8788 690.7351,0 z" /><g
                   id="g116"
                   transform="matrix(1,0,0,-1,220.972,322.0519)"><path
                     id="path114"
                     style="fill:none;stroke:#1f77b4;stroke-width:5;stroke-linecap:butt;stroke-linejoin:miter;stroke-miterlimit:4;stroke-dasharray:none;stroke-opacity:1"
                     d="m 833.791,11.15908 c 190.741,14.87878 190.741,39.00204 0,53.88081 -190.7413,14.87879 -499.9939,14.87879 -690.7351,0 -190.7412,-14.87877 -190.7412,-39.00203 0,-53.88081 190.7412,-14.878774 499.9938,-14.878774 690.7351,0 z" /></g></g></g></g></g></g></g><g
       id="g126"><g
         clip-path="url(#clipPath132)"
         id="g128"><g
           id="g134" /><g
           id="g154"><g
             style="opacity:0.45"
             id="g152"
             clip-path="url(#clipPath138)"><g
               id="g144" /><g
               id="g150"><g
                 id="g148"
                 clip-path="url(#clipPath142)"><path
                   id="path146"
                   style="fill:#8a0000;fill-opacity:1;fill-rule:nonzero;stroke:none"
                   d="m 378.3898,324.4317 c 19.5262,-69.6366 19.5262,-182.54 0,-252.17664 -19.5262,-69.636691 -51.1844,-69.636691 -70.7107,0 -19.5262,69.63664 -19.5262,182.54004 0,252.17664 19.5263,69.6367 51.1845,69.6367 70.7107,0 z" /></g></g></g></g></g></g><g
       id="g156"><g
         clip-path="url(#clipPath162)"
         id="g158"><g
           id="g164" /><g
           id="g184"><g
             style="opacity:0.45"
             id="g182"
             clip-path="url(#clipPath168)"><g
               id="g174" /><g
               id="g180"><g
                 id="g178"
                 clip-path="url(#clipPath172)"><path
                   id="path176"
                   style="fill:#8a0000;fill-opacity:1;fill-rule:nonzero;stroke:none"
                   d="m 483.0644,324.4317 c 19.5262,-69.6366 19.5262,-182.54 0,-252.17664 -19.5262,-69.636691 -51.1845,-69.636691 -70.7107,0 -19.5262,69.63664 -19.5262,182.54004 0,252.17664 19.5262,69.6367 51.1845,69.6367 70.7107,0 z" /></g></g></g></g></g></g><g
       id="g186"><g
         clip-path="url(#clipPath192)"
         id="g188"><g
           id="g194" /><g
           id="g214"><g
             style="opacity:0.45"
             id="g212"
             clip-path="url(#clipPath198)"><g
               id="g204" /><g
               id="g210"><g
                 id="g208"
                 clip-path="url(#clipPath202)"><path
                   id="path206"
                   style="fill:#8a0000;fill-opacity:1;fill-rule:nonzero;stroke:none"
                   d="m 587.7389,324.4317 c 19.5263,-69.6366 19.5263,-182.54 0,-252.17664 -19.5262,-69.636691 -51.1844,-69.636691 -70.7106,0 -19.5262,69.63664 -19.5262,182.54004 0,252.17664 19.5262,69.6367 51.1844,69.6367 70.7106,0 z" /></g></g></g></g></g></g><g
       id="g216"><g
         clip-path="url(#clipPath222)"
         id="g218"><g
           id="g224" /><g
           id="g244"><g
             style="opacity:0.45"
             id="g242"
             clip-path="url(#clipPath228)"><g
               id="g234" /><g
               id="g240"><g
                 id="g238"
                 clip-path="url(#clipPath232)"><path
                   id="path236"
                   style="fill:#8a0000;fill-opacity:1;fill-rule:nonzero;stroke:none"
                   d="m 692.4135,324.4317 c 19.5262,-69.6366 19.5262,-182.54 0,-252.17664 -19.5262,-69.636691 -51.1845,-69.636691 -70.7107,0 -19.5262,69.63664 -19.5262,182.54004 0,252.17664 19.5262,69.6367 51.1845,69.6367 70.7107,0 z" /></g></g></g></g></g></g><g
       id="g246"><g
         clip-path="url(#clipPath252)"
         id="g248"><g
           id="g254" /><g
           id="g274"><g
             style="opacity:0.45"
             id="g272"
             clip-path="url(#clipPath258)"><g
               id="g264" /><g
               id="g270"><g
                 id="g268"
                 clip-path="url(#clipPath262)"><path
                   id="path266"
                   style="fill:#8a0000;fill-opacity:1;fill-rule:nonzero;stroke:none"
                   d="m 797.0881,324.4317 c 19.5262,-69.6366 19.5262,-182.54 0,-252.17664 -19.5262,-69.636691 -51.1845,-69.636691 -70.7107,0 -19.5262,69.63664 -19.5262,182.54004 0,252.17664 19.5262,69.6367 51.1845,69.6367 70.7107,0 z" /></g></g></g></g></g></g><g
       id="g276"><g
         clip-path="url(#clipPath282)"
         id="g278"><g
           id="g284" /><g
           id="g304"><g
             style="opacity:0.45"
             id="g302"
             clip-path="url(#clipPath288)"><g
               id="g294" /><g
               id="g300"><g
                 id="g298"
                 clip-path="url(#clipPath292)"><path
                   id="path296"
                   style="fill:#8a0000;fill-opacity:1;fill-rule:nonzero;stroke:none"
                   d="m 901.7626,324.4317 c 19.5262,-69.6366 19.5262,-182.54 0,-252.17664 -19.5262,-69.636691 -51.1844,-69.636691 -70.7107,0 -19.5262,69.63664 -19.5262,182.54004 0,252.17664 19.5263,69.6367 51.1845,69.6367 70.7107,0 z" /></g></g></g></g></g></g><g
       id="g306"><g
         clip-path="url(#clipPath312)"
         id="g308"><g
           id="g314" /><g
           id="g334"><g
             style="opacity:0.45"
             id="g332"
             clip-path="url(#clipPath318)"><g
               id="g324" /><g
               id="g330"><g
                 id="g328"
                 clip-path="url(#clipPath322)"><path
                   id="path326"
                   style="fill:#8a0000;fill-opacity:1;fill-rule:nonzero;stroke:none"
                   d="m 1006.437,324.4317 c 19.526,-69.6366 19.526,-182.54 0,-252.17664 -19.526,-69.636691 -51.1843,-69.636691 -70.7105,0 -19.5262,69.63664 -19.5262,182.54004 0,252.17664 19.5262,69.6367 51.1845,69.6367 70.7105,0 z" /></g></g></g></g></g></g><g
       id="g336"><g
         clip-path="url(#clipPath342)"
         id="g338"><g
           id="g344" /><g
           id="g364"><g
             style="opacity:0.45"
             id="g362"
             clip-path="url(#clipPath348)"><g
               id="g354" /><g
               id="g360"><g
                 id="g358"
                 clip-path="url(#clipPath352)"><path
                   id="path356"
                   style="fill:#8a0000;fill-opacity:1;fill-rule:nonzero;stroke:none"
                   d="m 1111.112,324.4317 c 19.526,-69.6366 19.526,-182.54 0,-252.17664 -19.526,-69.636691 -51.185,-69.636691 -70.711,0 -19.526,69.63664 -19.526,182.54004 0,252.17664 19.526,69.6367 51.185,69.6367 70.711,0 z" /></g></g></g></g><g
           transform="translate(23.40284,187.4087)"
           id="g366"><text
             id="text370"
             style="font-variant:normal;font-weight:normal;font-size:33px;font-family:Nunito;-inkscape-font-specification:Nunito-Regular;writing-mode:lr-tb;fill:#1f77b4;fill-opacity:1;fill-rule:nonzero;stroke:none"
             transform="scale(1,-1)"><tspan
               id="tspan368"
               y="0"
               x="0 9.6029997 27.159 45.903 61.776001 70.290001 89.627998 101.244 119.592 138.105 157.34399">lens groups</tspan></text>
</g><g
           transform="translate(602.0092,401.9826)"
           id="g372"><text
             id="text376"
             style="font-variant:normal;font-weight:normal;font-size:33px;font-family:Nunito;-inkscape-font-specification:Nunito-Regular;writing-mode:lr-tb;fill:#8a0000;fill-opacity:1;fill-rule:nonzero;stroke:none"
             transform="scale(1,-1)"><tspan
               id="tspan374"
               y="0"
               x="0 15.543 32.505001 51.249001 62.997002 81.740997 99.296997 115.17 122.826 138.69901 147.213 166.55099 178.16701 196.515 215.028 234.267">synthesis groups</tspan></text>
</g><path
           id="path378"
           style="fill:#000000;fill-opacity:1;fill-rule:nonzero;stroke:none"
           d="m 1085.262,294.3725 c 5.477,-5.4763 5.477,-14.3553 0,-19.8316 -5.476,-5.4764 -14.355,-5.4764 -19.831,0 -5.477,5.4763 -5.477,14.3553 0,19.8316 5.476,5.4764 14.355,5.4764 19.831,0 z" /><g
           transform="translate(1124.496,354.365)"
           id="g380"><text
             id="text384"
             style="font-variant:normal;font-weight:bold;font-size:30px;font-family:Nunito;-inkscape-font-specification:Nunito-Bold;writing-mode:lr-tb;fill:#000000;fill-opacity:1;fill-rule:nonzero;stroke:none"
             transform="scale(1,-1)"><tspan
               id="tspan382"
               y="0"
               x="0 14.49 26.01 43.380001 61.380001 77.639999 95.190002">student</tspan></text>
</g><g
           transform="matrix(1,0,0,-1,1098.706,339.7751)"
           id="g386"><path
             id="path388"
             style="fill:none;stroke:#000000;stroke-width:2;stroke-linecap:butt;stroke-linejoin:miter;stroke-miterlimit:4;stroke-dasharray:4, 4;stroke-dashoffset:0;stroke-opacity:1"
             d="M 8.551809,53.92679 9.546206,53.82108 C 44.45774,48.84325 66.30282,30.9029 75.08176,0" /></g><path
           id="path390"
           style="fill:#000000;fill-opacity:1;fill-rule:nonzero;stroke:none"
           d="m 1107.745,290.7272 -9.039,-5.788 10.054,-3.7582 z" /></g></g></g></svg>